<svg width="182" height="120" viewBox="0 0 182 120" fill="none" xmlns="http://www.w3.org/2000/svg">
<path d="M44.6624 119.164H0.26123V89.6502H44.6624L22.9842 70.845L40.4835 47.8608L62.9452 65.3601C62.9452 65.3601 67.3471 80.0947 69.736 89.6502C70.5195 92.7844 71.5166 94.4876 70.7807 97.4857C70.113 100.206 66.863 103.493 66.863 103.493L44.6624 119.164Z" fill="#065623" stroke="#065623" stroke-width="0.522365"/>
<path d="M74.1761 0.326172L45.9683 8.94522L62.9452 65.622L84.3622 81.8154L90.6306 84.166L96.6378 82.5989C96.6378 82.5989 118.721 68.1579 119.883 66.1444C121.046 64.1308 133.465 28.7951 133.465 28.7951L106.04 19.3925L91.4142 56.4806L74.1761 0.326172Z" fill="#065623" stroke="#065623" stroke-width="0.522365"/>
<path d="M181.261 59.6147L163.761 35.3247L119.621 66.6667L111.002 93.0462V99.5758L114.398 104.538L135.031 119.165H159.06L159.583 89.3896L139.733 88.8673L181.261 59.6147Z" fill="#065623" stroke="#065623" stroke-width="0.522365"/>
</svg>
